<?xml version="1.0" encoding="utf-8"?>
<!-- Generator: Adobe Illustrator 19.1.0, SVG Export Plug-In . SVG Version: 6.00 Build 0)  -->
<!DOCTYPE svg PUBLIC "-//W3C//DTD SVG 1.1//EN" "http://www.w3.org/Graphics/SVG/1.1/DTD/svg11.dtd">
<svg version="1.1" xmlns="http://www.w3.org/2000/svg" xmlns:xlink="http://www.w3.org/1999/xlink" x="0px" y="0px"
	 viewBox="-165 372.4 172.3 49.2" style="enable-background:new -165 372.4 172.3 49.2;" xml:space="preserve">
<style type="text/css">
	.st0{fill:#333333;}
	.st1{fill-rule:evenodd;clip-rule:evenodd;fill:#D33894;}
	.st2{fill:none;}
	.st3{fill:#FCC233;}
	.st4{fill:#0B76BD;}
</style>
<g id="Calque_1">
	<g>
		<path class="st0" d="M-94.8,410.3v-26.1h15.3v3.1h-11.7v8h9.6v3.1h-9.6v8.7H-79v3.1H-94.8z"/>
		<path class="st0" d="M-51.7,410.3v-12.2c0-2.9-1.8-4.4-4.1-4.4c-1.4,0-3.3,0.7-4.4,1.5c0.2,0.5,0.2,1.2,0.2,1.7v13.5h-3.4v-12.2
			c0-2.9-1.8-4.4-4.1-4.4c-1.4,0-3.1,0.5-4.2,1.3v15.3H-75v-18.9l3.3-0.3l-0.1,2.2h0.2c1.4-1.3,3.5-2.5,5.9-2.5
			c2.5,0,4.1,1.6,4.9,2.8c1.7-1.6,4.2-2.8,6.7-2.8c3,0,5.9,2.3,5.9,6.1v13.5H-51.7z"/>
		<path class="st0" d="M-27.9,410.2c-0.5,0.2-1.3,0.3-2,0.3c-1.5,0-2.6-0.7-2.9-2.3H-33c-1.3,1.3-3.2,2.4-5.8,2.4
			c-3,0-5.3-2-5.3-4.9c0-3.5,3-6.7,11-7.1v-2.4c0-1.7-1-2.8-2.8-2.8c-1.9,0-4.4,0.9-6.5,2.3l-0.3-2.6c2.1-1.5,4.8-2.5,7.9-2.5
			c3.1,0,5.2,1.8,5.2,4.9c0,1.2-0.1,8.9-0.1,9.7c0,1.5,0.7,2.3,2.2,2.4L-27.9,410.2z M-33.2,401.2c-6.2,0.3-7.6,2.6-7.6,4.1
			c0,1.6,1.1,2.7,3.3,2.7c1.7,0,3.4-0.8,4.4-1.7V401.2z"/>
		<path class="st0" d="M-21.7,386.7c-1.2,0-2.2-1-2.2-2.1c0-1.2,1-2.1,2.2-2.1c1.2,0,2.1,0.9,2.1,2.1
			C-19.5,385.7-20.5,386.7-21.7,386.7z M-23.5,410.3v-19.1h3.4v19.1H-23.5z"/>
		<path class="st0" d="M-13.7,410.3v-29.9h3.4v29.9H-13.7z"/>
		<path class="st0" d="M-0.5,410.7c-2.2,0-3.9-0.5-5.3-1.5l0.5-2.9c1.3,1,3.3,1.6,5.2,1.6c1.7,0,3.6-0.7,3.6-2.6
			c0-3.8-8.6-3-8.6-8.9c0-3.7,3.3-5.6,6.9-5.6c1.7,0,3.4,0.5,4.6,1.1L6,394.6c-1.3-0.6-3-1.1-4.6-1.1c-1.6,0-3.1,0.8-3.1,2.3
			c0,3.8,8.7,3,8.7,8.8C6.9,408.8,3.2,410.7-0.5,410.7z"/>
	</g>
</g>
<g id="Calque_4">
	<polygon class="st1" points="-150.2,404.9 -115.8,379.3 -165,397.5 	"/>
	<polygon class="st2" points="-138.6,408.7 -138.6,408.8 -138.6,408.7 	"/>
	<polygon class="st2" points="-138.6,408.8 -129.6,412.9 -138.6,408.8 	"/>
	<polygon class="st3" points="-144.4,406 -138.6,408.8 -138.6,408.8 -138.6,408.7 -138.6,408.7 -138.6,408.8 -129.6,412.9 
		-115.8,379.3 	"/>
	<polygon class="st4" points="-138.6,408.8 -144.4,406 -146.8,416.2 	"/>
</g>
</svg>
